HIERARCHY
ROOT Hips
{
  OFFSET 5.70366 102.999 -1.77653
  CHANNELS 6 Xposition Yposition Zposition Zrotation Xrotation Yrotation
  JOINT RightUpLeg
  {
    OFFSET -8.9458 -8.66707 0.101652
    CHANNELS 3 Zrotation Xrotation Yrotation
    JOINT RightLeg
    {
      OFFSET 0 -44.4227 1.3727
      CHANNELS 3 Zrotation Xrotation Yrotation
      JOINT RightFoot
      {
        OFFSET 0.253549 -42.0924 -1.46059
        CHANNELS 3 Zrotation Xrotation Yrotation
        JOINT RightToes
        {
          OFFSET 0.04 -4.41509 8.4991
          CHANNELS 3 Zrotation Xrotation Yrotation
          End Site
          {
            OFFSET -0.08 -0.137448 9.77979
          }
        }
      }
    }
  }
  JOINT Spine
  {
    OFFSET 0 11.8905 0
    CHANNELS 3 Zrotation Xrotation Yrotation
    JOINT Spine1
    {
      OFFSET 0 25.6574 0.127663
      CHANNELS 3 Zrotation Xrotation Yrotation
      JOINT HEad
      {
        OFFSET 0 8.73416 0.011341
        CHANNELS 3 Zrotation Xrotation Yrotation
        End Site
        {
          OFFSET -0.29 12.7742 2.51395
        }
      }
      JOINT LeftShoulder1
      {
        OFFSET 8.99 -0.362252 -0.22
        CHANNELS 3 Zrotation Xrotation Yrotation
        JOINT LeftArm
        {
          OFFSET 10.2827 -0.00337999 0.322123
          CHANNELS 3 Zrotation Xrotation Yrotation
          JOINT LeftForeArm
          {
            OFFSET 26.2597 0.099144 -1.42434
            CHANNELS 3 Zrotation Xrotation Yrotation
            JOINT LeftHand
            {
              OFFSET 22.0902 0.085362 1.02216
              CHANNELS 3 Zrotation Xrotation Yrotation
              End Site
              {
                OFFSET 13.419 -0.6 1.50291
              }
            }
          }
        }
      }
      JOINT RightShoulder
      {
        OFFSET -8.99 -0.362252 -0.22
        CHANNELS 3 Zrotation Xrotation Yrotation
        JOINT RightArm
        {
          OFFSET -10.2827 -0.00338 0.322123
          CHANNELS 3 Zrotation Xrotation Yrotation
          JOINT RightForeArm
          {
            OFFSET -26.364 0.099144 -1.42434
            CHANNELS 3 Zrotation Xrotation Yrotation
            JOINT RightHand
            {
              OFFSET -22.0324 0.085362 1.02216
              CHANNELS 3 Zrotation Xrotation Yrotation
              End Site
              {
                OFFSET -13.3284 -0.6 1.50291
              }
            }
          }
        }
      }
    }
  }
  JOINT LeftUpLeg
  {
    OFFSET 8.9458 -8.66707 0.101652
    CHANNELS 3 Zrotation Xrotation Yrotation
    JOINT LeftLeg
    {
      OFFSET 0 -44.4227 1.3727
      CHANNELS 3 Zrotation Xrotation Yrotation
      JOINT LeftFoot
      {
        OFFSET -0.253549 -42.0924 -1.46059
        CHANNELS 3 Zrotation Xrotation Yrotation
        JOINT LeftToes
        {
          OFFSET -0.04 -4.41509 8.4991
          CHANNELS 3 Zrotation Xrotation Yrotation
          End Site
          {
            OFFSET 0.08 -0.047448 9.77979
          }
        }
      }
    }
  }
}
MOTION
Frames:	12
Frame Time:	0.0416667
-219.019 104.425 14.8992 -0.581047 -0.155806 91.7149 1.58835 -2.73527 -1.19621 -1.47934 13.2671 -1.29404 -6.41761 -6.9372 -0.128622 0.0462048 0.000530891 0.662642 1.36002 -1.23487 0.742068 -3.16638 3.30574 1.40093 6.12112 13.0323 -0.706635 -31.532 -3.41056 12.7209 -46.2688 -25.0178 -7.76643 -2.90507 51.9463 -11.0247 1.40076 9.84123 -5.78411 40.228 0.941245 -2.14606 36.9703 -4.64913 4.80796 -0.966541 32.8952 21.1434 0.148929 9.9749 2.76299 -3.30886 -0.88471 0.681867 2.49897 9.37397 15.8166 3.52285 -5.55861 -0.0433486 -1.31231e-009 8.7524e-006 -1.46495e-008 
-219.078 104.417 14.9503 -0.663823 -0.170928 91.6431 1.66495 -2.91009 -1.08341 -1.52461 13.3468 -1.33452 -6.43089 -6.96075 -0.128629 0.0462048 0.000530891 0.662642 1.30244 -1.22293 0.758668 -3.12544 3.25527 1.40733 6.25799 13.1366 -0.645205 -31.6039 -3.42292 12.7363 -46.1931 -24.6439 -7.6993 -2.78223 51.6197 -11.3523 1.38838 9.84262 -5.70196 39.7822 0.654755 -2.74785 37.3527 -3.1082 5.62714 -0.663712 31.9204 21.2134 0.227964 9.97394 2.87793 -3.25425 -1.08345 0.71042 2.47831 9.5218 15.8707 3.51656 -5.5844 -0.0433506 -1.31231e-009 8.7524e-006 -1.46495e-008 
-219.217 104.396 15.0501 -0.80986 -0.120288 91.4925 1.71794 -3.29981 -0.918779 -1.60834 13.6105 -1.3342 -6.49585 -7.02998 -0.131594 0.0462048 0.000530891 0.662642 1.04904 -0.996422 0.789038 -2.97314 2.97329 1.41194 6.11692 12.9379 -1.30246 -31.6327 -3.44438 12.7857 -46.3609 -24.8561 -8.00069 -3.17035 52.0977 -10.7809 1.44325 9.83685 -5.81127 39.5968 0.515969 -3.04361 37.426 -0.584338 6.21347 -0.691177 30.1739 22.0472 0.155717 9.96971 3.16715 -3.24606 -1.42431 0.696284 2.45956 9.72958 15.9973 3.42846 -5.62119 -0.0433533 -1.31231e-009 8.7524e-006 -1.46495e-008 
-219.389 104.371 15.1559 -0.862518 -0.0136544 91.3517 1.67063 -3.6401 -0.864706 -1.62319 13.9626 -1.19546 -6.56875 -7.24114 -0.144759 0.0462048 0.000530891 0.662642 0.69784 -0.392113 0.735639 -2.82568 2.40472 1.33604 5.65932 12.2305 -2.37223 -31.4544 -3.4441 12.8274 -46.8666 -25.7361 -8.6597 -4.40809 53.4792 -8.76736 1.71573 9.80792 -6.24715 39.8568 0.588786 -2.89102 37.0853 1.64549 6.48991 -0.779074 28.522 23.0734 -0.0869949 9.95555 3.62391 -3.29512 -1.66747 0.663311 2.4406 9.90992 16.1378 3.41467 -5.61533 -0.0433528 -1.31231e-009 8.7524e-006 -1.46495e-008 
-219.596 104.329 15.2882 -0.901998 0.128581 91.1433 1.66867 -4.13961 -0.595424 -1.74423 14.6482 -1.17752 -6.4177 -7.69945 -0.174191 0.0462048 0.000530891 0.662642 0.300497 0.281898 0.704929 -2.74712 1.98429 1.29728 5.59638 11.6217 -2.63709 -30.9634 -3.28316 12.5164 -47.5192 -25.8946 -8.79119 -5.17085 54.1555 -7.61598 1.9553 9.78221 -6.45366 40.1682 0.603525 -2.86539 36.6759 3.45449 7.13206 -0.517735 26.8996 23.9225 -0.328948 9.93978 4.14282 -3.34502 -1.9733 0.67274 2.37997 10.2049 16.3366 3.41548 -5.63449 -0.0417979 -1.31231e-009 8.7524e-006 -1.46495e-008 
-219.851 104.241 15.4801 -1.12226 0.343855 90.7926 1.86731 -5.14023 0.551478 -2.12622 15.9066 -1.9055 -6.18246 -8.36946 -0.215123 0.0462048 0.000530891 0.662642 -0.223686 0.757502 0.755741 -2.66979 1.93963 1.33802 5.7308 10.8339 -1.93613 -30.3667 -3.02098 11.9472 -48.1722 -25.3545 -8.35253 -5.02243 54.1676 -8.04196 1.95059 9.78332 -6.21195 40.2802 0.568787 -2.94177 36.4839 4.41475 8.16282 -0.131378 25.8464 24.5339 -0.518814 9.92718 4.86553 -3.39453 -2.65211 0.712781 2.26186 10.8098 16.5714 3.17982 -5.80135 -0.0324337 -1.31231e-009 8.7524e-006 -1.46495e-008 
-220.075 104.117 15.7077 -1.38841 0.625159 90.4352 2.09911 -6.23848 2.50073 -2.38763 17.3465 -3.42105 -6.22936 -9.07129 -0.25882 0.0462048 0.000530891 0.662642 -0.878847 1.32145 0.66451 -2.51842 1.79462 1.21 5.36878 9.51689 -1.24386 -30.1358 -2.92747 11.7438 -48.5933 -25.0998 -8.16932 -5.2845 54.6868 -7.81611 1.86761 9.79355 -5.87284 40.2066 0.623015 -2.82455 36.6997 4.76434 9.19776 0.228484 25.2101 24.4777 -0.500152 9.93193 5.55202 -3.49599 -3.40748 0.753033 2.13178 11.5216 16.8555 3.02505 -6.01672 -0.0228338 -1.31231e-009 8.7524e-006 -1.46495e-008 
-220.165 104.015 15.9514 -1.52902 0.930409 90.2308 2.14004 -6.9786 4.05078 -2.33942 18.5003 -4.70642 -6.34632 -9.56412 -0.291202 0.0462048 0.000530891 0.662642 -1.54776 2.0971 0.396389 -2.2842 1.36472 0.87778 4.89576 8.51825 -1.02687 -30.2642 -2.98124 11.8623 -49.023 -25.7208 -8.33582 -5.96432 56.019 -6.44564 1.79992 9.804 -5.59592 40.2283 0.682565 -2.69789 37.1274 4.66883 9.9732 0.574378 24.6888 23.8411 -0.10109 9.96896 5.48619 -3.64957 -3.80596 0.756029 2.06405 11.9343 17.0904 2.99874 -6.14839 -0.0183162 -1.31231e-009 8.7524e-006 -1.46495e-008 
-220.151 103.989 16.2162 -1.7688 1.11804 90.141 2.15778 -7.47985 4.6805 -2.24686 18.9946 -5.22989 -6.2951 -9.56784 -0.290601 0.0462048 0.000530891 0.662642 -1.91272 2.68494 0.162492 -2.10697 1.10119 0.59481 4.68394 7.81911 -0.873277 -30.3197 -2.97081 11.8217 -49.9822 -26.5925 -8.52039 -5.93374 56.7501 -5.30499 1.71743 9.81299 -5.40587 40.5177 0.650124 -2.7734 37.5168 3.63881 10.3768 0.721782 24.9113 23.0565 0.408952 10.0083 4.78552 -3.68263 -4.02845 0.719181 2.06552 11.8811 17.1243 2.7338 -6.1147 -0.0201302 -1.31231e-009 8.7524e-006 -1.46495e-008 
-220.086 104.025 16.4802 -2.29448 1.13895 89.955 2.29978 -7.88743 4.58024 -2.30783 18.6404 -4.91442 -6.38745 -9.25045 -0.272013 0.0462048 0.000530891 0.662642 -1.83269 2.86574 0.00827246 -2.09016 1.17511 0.429204 4.30546 6.6143 -0.466464 -30.2626 -2.9159 11.6849 -51.123 -27.0253 -8.72563 -5.54913 55.7976 -4.72507 1.58615 9.8258 -5.28982 40.6976 0.60994 -2.86226 38.2113 1.10375 10.3495 0.780424 26.525 21.7758 0.728053 10.0283 4.25377 -3.55147 -4.36466 0.688263 2.09425 11.5058 17.297 2.6356 -5.87396 -0.0238171 -1.31231e-009 8.7524e-006 -1.46495e-008 
-219.918 104.078 16.7222 -2.94382 1.14699 89.6825 2.351 -8.11475 3.79023 -2.41295 17.7746 -3.78908 -6.72052 -9.08855 -0.266031 0.0462048 0.000530891 0.662642 -1.66892 2.91282 -0.135438 -1.90914 1.16839 0.250932 3.67072 5.48372 0.100743 -30.2919 -2.89078 11.6104 -51.872 -26.6812 -8.97884 -5.55112 53.4779 -4.67782 1.27629 9.85456 -5.16562 40.4631 0.603309 -2.87167 39.4267 -3.69495 9.74368 1.07378 29.9209 19.6762 1.04687 10.0479 3.86618 -3.46105 -4.6878 0.573118 2.18733 10.9796 17.7562 2.55031 -5.63558 -0.0266873 -1.31231e-009 8.7524e-006 -1.46495e-008 
-219.646 104.098 16.9822 -3.59334 1.22919 89.4788 2.28719 -8.41504 2.99595 -2.3874 17.2922 -2.75153 -7.02856 -9.30535 -0.284904 0.0462048 0.000530891 0.662642 -1.78118 3.05517 -0.320391 -1.30905 0.880212 -0.0427458 3.21886 4.91149 0.658051 -30.3098 -2.84015 11.4691 -52.7841 -25.8496 -9.7438 -5.47653 50.8548 -5.42588 0.872609 9.89138 -5.2348 40.2266 0.567044 -2.94449 40.26 -9.38096 8.5493 1.34701 34.0509 17.4564 1.44614 10.0624 3.04644 -3.44368 -5.05743 0.351997 2.3348 10.7048 18.0489 1.67814 -5.70821 -0.00986069 -1.31231e-009 8.7524e-006 -1.46495e-008 
